{
  "source": "C:\\Users\\Peter\\Desktop\\stuff\\MIUN\\quantitative_research\\video_compression\\videos\\BVI-HD\\BVI-HD_CDVL_videos\\ORIG\\KineticFastPainting_1920x1080_60fps.mp4",
  "output": "C:\\Users\\Peter\\Desktop\\stuff\\MIUN\\quantitative_research\\video_compression\\compressed_videos\\BVI-HD\\h264\\1\\KineticFastPainting_1920x1080_60fps_h264.mp4",
  "codec": "h264",
  "ok": "Input #0, mov,mp4,m4a,3gp,3g2,mj2, from 'C:\\Users\\Peter\\Desktop\\stuff\\MIUN\\quantitative_research\\video_compression\\videos\\BVI-HD\\BVI-HD_CDVL_videos\\ORIG\\KineticFastPainting_1920x1080_60fps.mp4':\n  Metadata:\n    major_brand     : isom\n    minor_version   : 512\n    compatible_brands: isomiso2avc1mp41\n    encoder         : Lavf54.28.101\n  Duration: 00:00:05.00, start: 0.000000, bitrate: 477980 kb/s\n  Stream #0:0[0x1](und): Video: h264 (High 4:4:4 Predictive) (avc1 / 0x31637661), yuv420p(progressive), 1920x1080, 477974 kb/s, 60 fps, 60 tbr, 60 tbn (default)\n    Metadata:\n      handler_name    : VideoHandler\n      vendor_id       : [0][0][0][0]\n[out#0/mp4 @ 000001c50eecf040] Codec AVOption b:a (set bitrate (in bits/s)) has not been used for any stream. The most likely reason is either wrong type (e.g. a video option with no video streams) or that it is a private option of some decoder which was not actually used for any stream.\nStream mapping:\n  Stream #0:0 -> #0:0 (h264 (native) -> h264 (libx264))\nPress [q] to stop, [?] for help\n[libx264 @ 000001c50e28c500] using cpu capabilities: MMX2 SSE2Fast SSSE3 SSE4.2 AVX FMA3 BMI2 AVX2\n[libx264 @ 000001c50e28c500] profile High, level 5.0, 4:2:0, 8-bit\n[libx264 @ 000001c50e28c500] 264 - core 165 r3222 b35605a - H.264/MPEG-4 AVC codec - Copyleft 2003-2025 - http://www.videolan.org/x264.html - options: cabac=1 ref=5 deblock=1:0:0 analyse=0x3:0x113 me=hex subme=8 psy=1 psy_rd=1.00:0.00 mixed_ref=1 me_range=16 chroma_me=1 trellis=2 8x8dct=1 cqm=0 deadzone=21,11 fast_pskip=1 chroma_qp_offset=-2 threads=18 lookahead_threads=3 sliced_threads=0 nr=0 decimate=1 interlaced=0 bluray_compat=0 constrained_intra=0 bframes=3 b_pyramid=2 b_adapt=1 b_bias=0 direct=3 weightb=1 open_gop=0 weightp=2 keyint=250 keyint_min=25 scenecut=40 intra_refresh=0 rc_lookahead=50 rc=cbr mbtree=1 bitrate=1000 ratetol=1.0 qcomp=0.60 qpmin=0 qpmax=69 qpstep=4 vbv_maxrate=1000 vbv_bufsize=1000 nal_hrd=none filler=0 ip_ratio=1.40 aq=1:1.00\nOutput #0, mp4, to 'C:\\Users\\Peter\\Desktop\\stuff\\MIUN\\quantitative_research\\video_compression\\compressed_videos\\BVI-HD\\h264\\1\\KineticFastPainting_1920x1080_60fps_h264.mp4':\n  Metadata:\n    major_brand     : isom\n    minor_version   : 512\n    compatible_brands: isomiso2avc1mp41\n    encoder         : Lavf62.3.100\n  Stream #0:0(und): Video: h264 (avc1 / 0x31637661), yuv420p(tv, progressive), 1920x1080, q=2-31, 1000 kb/s, 60 fps, 15360 tbn (default)\n    Metadata:\n      encoder         : Lavc62.11.100 libx264\n      handler_name    : VideoHandler\n      vendor_id       : [0][0][0][0]\n    Side data:\n      cpb: bitrate max/min/avg: 1000000/0/1000000 buffer size: 1000000 vbv_delay: N/A\nframe=    0 fps=0.0 q=0.0 size=       0KiB time=N/A bitrate=N/A speed=N/A elapsed=0:00:00.51    \nframe=    0 fps=0.0 q=0.0 size=       0KiB time=N/A bitrate=N/A speed=N/A elapsed=0:00:01.15    \nframe=    0 fps=0.0 q=0.0 size=       0KiB time=N/A bitrate=N/A speed=N/A elapsed=0:00:01.79    \nframe=   18 fps=7.4 q=60.0 size=       0KiB time=00:00:00.25 bitrate=   1.5kbits/s speed=0.103x elapsed=0:00:02.42    \nframe=   40 fps= 14 q=61.0 size=       0KiB time=00:00:00.61 bitrate=   0.6kbits/s speed=0.209x elapsed=0:00:02.95    \nframe=   64 fps= 18 q=62.0 size=       0KiB time=00:00:00.96 bitrate=   0.4kbits/s speed=0.271x elapsed=0:00:03.56    \nframe=   89 fps= 21 q=62.0 size=       0KiB time=00:00:01.41 bitrate=   0.3kbits/s speed=0.341x elapsed=0:00:04.15    \nframe=  118 fps= 25 q=60.0 size=       0KiB time=00:00:01.88 bitrate=   0.2kbits/s speed= 0.4x elapsed=0:00:04.71    \nframe=  139 fps= 26 q=61.0 size=     256KiB time=00:00:02.28 bitrate= 918.6kbits/s speed=0.429x elapsed=0:00:05.32    \nframe=  163 fps= 28 q=61.0 size=     256KiB time=00:00:02.63 bitrate= 796.5kbits/s speed=0.445x elapsed=0:00:05.91    \nframe=  189 fps= 29 q=61.0 size=     256KiB time=00:00:03.08 bitrate= 680.3kbits/s speed=0.469x elapsed=0:00:06.57    \nframe=  214 fps= 30 q=61.0 size=     256KiB time=00:00:03.51 bitrate= 596.5kbits/s speed=0.492x elapsed=0:00:07.15    \nframe=  246 fps= 32 q=61.0 size=     256KiB time=00:00:03.98 bitrate= 526.6kbits/s speed=0.516x elapsed=0:00:07.72    \nframe=  264 fps= 32 q=61.0 size=     512KiB time=00:00:04.36 bitrate= 960.6kbits/s speed=0.526x elapsed=0:00:08.30    \n[mp4 @ 000001c50eecf140] Starting second pass: moving the moov atom to the beginning of the file\n[out#0/mp4 @ 000001c50eecf040] video:645KiB audio:0KiB subtitle:0KiB other streams:0KiB global headers:0KiB muxing overhead: 0.516910%\nframe=  300 fps= 35 q=-1.0 Lsize=     649KiB time=00:00:04.96 bitrate=1069.6kbits/s speed=0.572x elapsed=0:00:08.67    \n[libx264 @ 000001c50e28c500] frame I:2     Avg QP:50.19  size:  9351\n[libx264 @ 000001c50e28c500] frame P:210   Avg QP:51.00  size:  2831\n[libx264 @ 000001c50e28c500] frame B:88    Avg QP:51.00  size:   530\n[libx264 @ 000001c50e28c500] consecutive B-frames: 50.7% 30.0%  2.0% 17.3%\n[libx264 @ 000001c50e28c500] mb I  I16..4: 74.3% 25.7%  0.0%\n[libx264 @ 000001c50e28c500] mb P  I16..4: 10.0% 12.8%  0.0%  P16..4:  6.5%  0.1%  0.5%  0.0%  0.0%    skip:70.0%\n[libx264 @ 000001c50e28c500] mb B  I16..4:  0.0%  0.0%  0.0%  B16..8:  4.1%  0.0%  0.0%  direct: 0.9%  skip:95.0%  L0:38.1% L1:61.5% BI: 0.4%\n[libx264 @ 000001c50e28c500] 8x8 transform intra:54.8% inter:97.8%\n[libx264 @ 000001c50e28c500] direct mvs  spatial:88.6% temporal:11.4%\n[libx264 @ 000001c50e28c500] coded y,uvDC,uvAC intra: 0.7% 32.8% 0.0% inter: 0.0% 1.7% 0.0%\n[libx264 @ 000001c50e28c500] i16 v,h,dc,p: 75% 19%  3%  3%\n[libx264 @ 000001c50e28c500] i8 v,h,dc,ddl,ddr,vr,hd,vl,hu:  0%  0% 98%  0%  0%  0%  0%  0%  0%\n[libx264 @ 000001c50e28c500] i4 v,h,dc,ddl,ddr,vr,hd,vl,hu: 50%  0%  3% 28%  6%  3%  0%  6%  3%\n[libx264 @ 000001c50e28c500] i8c dc,h,v,p: 96%  2%  2%  0%\n[libx264 @ 000001c50e28c500] Weighted P-Frames: Y:32.9% UV:14.8%\n[libx264 @ 000001c50e28c500] ref P L0: 41.5%  0.4% 19.4% 11.6% 13.0% 11.4%  2.8%\n[libx264 @ 000001c50e28c500] ref B L0: 62.7% 19.7% 15.1%  2.5%\n[libx264 @ 000001c50e28c500] ref B L1: 90.1%  9.9%\n[libx264 @ 000001c50e28c500] kb/s:1055.83\n",
  "seconds": 9.31673789024353,
  "probe_out": {}
}